<svg t="1661477240689" class="icon" viewBox="0 0 1093 1024" version="1.1" xmlns="http://www.w3.org/2000/svg" p-id="846" width="200" height="200"><path d="M184.087273 585.076364C186.181818 512 155.927273 319.301818 275.316364 180.363636c106.589091-123.810909 309.061818-142.661818 467.316363-59.345454 235.752727 124.043636 195.258182 403.083636 69.818182 581.818182A700.509091 700.509091 0 0 1 193.861818 998.865455c-133.818182-10.007273-154.530909-121.949091-83.083636-180.829091S182.225455 674.909091 184.087273 585.076364z" fill="#F9B630" p-id="847"></path><path d="M684.218182 99.607273s55.854545-54.690909 155.927273-25.367273 191.534545 191.301818 247.621818 240.872727a442.181818 442.181818 0 0 1-168.494546-39.098182c-125.672727-57.483636-235.054545-176.407273-235.054545-176.407272z" fill="#73D36E" p-id="848"></path><path d="M672.984292 167.616628a31.418182 23.505455 23.5 1 0 18.745556-43.111828 31.418182 23.505455 23.5 1 0-18.745556 43.111828Z" fill="#604D42" p-id="849"></path><path d="M259.723636 318.836364a320.698182 320.698182 0 0 0-21.876363 98.676363c-3.956364 55.621818 1.163636 91.927273 6.050909 89.367273s7.214545-46.545455 16.989091-91.694545a712.610909 712.610909 0 0 1 24.669091-91.461819c14.196364-37.236364-14.196364-27.927273-25.832728-4.887272zM303.709091 243.432727a20.48 20.48 0 0 0-22.109091 12.101818 17.454545 17.454545 0 0 0 6.283636 22.109091c8.378182 3.956364 15.36-2.327273 19.781819-11.869091s4.654545-18.850909-3.956364-22.341818z" fill="#FFFFFF" p-id="850"></path><path d="M195.723636 965.352727q-24.901818 0-49.803636-1.861818c-67.258182-4.887273-114.501818-35.141818-129.629091-82.618182a111.709091 111.709091 0 0 1 40.029091-118.690909c65.861818-54.458182 67.258182-128.232727 69.818182-213.876363v-10.24-40.96C121.483636 409.367273 116.363636 246.690909 219.461818 125.905455c79.592727-93.090909 215.970909-133.12 355.84-106.123637a11.636364 11.636364 0 0 1 9.309091 13.730909 11.869091 11.869091 0 0 1-13.730909 9.309091c-131.723636-25.6-259.723636 12.101818-333.730909 98.210909C139.636364 256 144.523636 405.876364 147.781818 495.941818V548.538182c-1.861818 87.505455-3.490909 170.356364-77.498182 231.330909a87.505455 87.505455 0 0 0-32.581818 93.090909c12.101818 38.167273 51.898182 62.370909 109.149091 66.56a659.549091 659.549091 0 0 0 206.196364-17.454545 11.636364 11.636364 0 1 1 5.585454 23.272727 687.010909 687.010909 0 0 1-162.909091 20.014545zM391.447273 936.494545a11.636364 11.636364 0 0 1-3.258182-23.272727c16.756364-5.12 33.512727-10.705455 50.036364-17.221818a11.636364 11.636364 0 0 1 8.378181 21.643636c-16.989091 6.516364-34.443636 12.567273-51.665454 17.687273zM491.287273 897.861818a11.636364 11.636364 0 0 1-4.887273-23.272727l9.541818-4.654546a11.636364 11.636364 0 0 1 10.472727 20.712728l-10.007272 4.887272a11.636364 11.636364 0 0 1-5.12 2.327273zM555.52 862.952727a11.636364 11.636364 0 0 1-6.050909-21.643636 693.527273 693.527273 0 0 0 206.661818-193.396364c74.24-105.192727 109.847273-232.727273 95.185455-339.083636a11.636364 11.636364 0 0 1 23.272727-3.025455c15.36 112.64-21.643636 245.527273-99.141818 355.607273A716.334545 716.334545 0 0 1 561.570909 861.090909a11.636364 11.636364 0 0 1-6.050909 1.861818zM1066.356364 290.909091a445.44 445.44 0 0 1-172.683637-42.589091 867.374545 867.374545 0 0 1-236.450909-182.690909 11.636364 11.636364 0 0 1 0-16.290909C660.247273 46.545455 721.454545-8.610909 825.716364 23.272727c71.214545 22.109091 135.447273 105.890909 186.181818 173.149091a626.734545 626.734545 0 0 0 61.672727 73.774546 11.636364 11.636364 0 0 1-7.912727 20.247272z m-383.301819-232.727273a840.378182 840.378182 0 0 0 220.392728 167.796364 442.181818 442.181818 0 0 0 133.352727 38.167273c-12.8-13.963636-26.996364-31.418182-42.589091-53.061819-49.570909-64.698182-111.243636-145.221818-175.476364-164.538181a156.858182 156.858182 0 0 0-135.68 12.8z" fill="#604D42" p-id="851"></path></svg>